<?xml version="1.0" standalone="no"?>
<!DOCTYPE svg PUBLIC "-//W3C//DTD SVG 20010904//EN"
 "http://www.w3.org/TR/2001/REC-SVG-20010904/DTD/svg10.dtd">
<svg version="1.0" xmlns="http://www.w3.org/2000/svg"
 width="256.000000pt" height="256.000000pt" viewBox="0 0 256.000000 256.000000"
 preserveAspectRatio="xMidYMid meet">
<metadata>
Created by potrace 1.11, written by Peter Selinger 2001-2013
</metadata>
<g transform="translate(0.000000,256.000000) scale(0.100000,-0.100000)"
fill="#000000" stroke="none">
<path d="M1320 2503 c-42 -22 -80 -76 -80 -114 0 -30 -3 -31 -130 -14 -62 8
-239 30 -343 42 -104 12 -145 6 -222 -33 -120 -62 -144 -78 -154 -104 -6 -15
-9 -254 -9 -585 1 -463 -3 -624 -17 -685 -36 -160 -73 -253 -129 -319 -34 -40
-36 -46 -21 -57 15 -11 100 -30 118 -26 4 1 10 -10 13 -25 8 -41 54 -103 90
-122 17 -9 29 -21 27 -27 -2 -5 6 -10 17 -11 13 -1 18 2 14 9 -5 7 -2 8 5 3 8
-4 9 -11 4 -16 -13 -13 -55 -20 -48 -9 3 5 0 12 -6 16 -7 4 -9 3 -6 -3 4 -6 0
-14 -9 -17 -8 -3 -13 -10 -10 -15 4 -5 3 -11 -1 -14 -5 -2 -1 -2 7 1 41 12 69
10 84 -7 13 -15 14 -18 1 -18 -8 0 -11 5 -8 10 4 6 -1 8 -11 4 -9 -4 -15 -3
-12 1 3 5 -1 9 -8 9 -18 0 -8 -27 10 -28 31 -3 35 -5 43 -17 7 -11 9 -10 14 3
5 10 3 14 -5 9 -7 -5 -8 -3 -4 5 5 7 0 21 -10 32 -14 16 -15 22 -4 32 10 9 11
9 6 -1 -12 -21 3 -33 26 -21 15 8 19 8 14 0 -4 -6 0 -14 8 -17 9 -3 13 -10 10
-15 -3 -5 3 -9 12 -9 16 0 16 -1 -2 -14 -10 -8 -16 -18 -11 -22 4 -4 7 -2 7 4
0 7 10 12 21 12 18 0 19 -2 9 -15 -7 -9 -8 -15 -2 -15 20 0 20 28 1 49 -11 12
-16 21 -11 21 10 0 58 -62 54 -72 -1 -4 5 -5 12 -2 20 8 27 31 10 31 -7 0 -10
-5 -7 -10 4 -6 1 -7 -6 -3 -7 5 -10 10 -7 13 2 3 -3 13 -12 23 -18 21 -26 53
-10 44 5 -3 7 -9 4 -12 -4 -3 4 -16 16 -29 16 -17 24 -20 35 -11 7 6 16 8 20
4 3 -3 1 -6 -6 -6 -7 0 -9 -5 -6 -10 4 -6 11 -7 17 -4 6 4 13 2 17 -3 3 -6 16
-13 28 -17 18 -6 22 -4 17 8 -3 9 -1 16 6 16 6 0 8 -5 4 -11 -4 -7 -1 -10 7
-7 8 3 13 11 11 17 -1 7 2 9 8 6 6 -4 9 -10 6 -13 -3 -3 -1 -11 5 -18 8 -10
16 -11 29 -4 15 8 17 6 13 -10 -3 -12 0 -20 6 -20 7 0 9 5 5 12 -4 6 -3 8 4 4
6 -3 14 -2 17 4 5 8 11 7 21 -1 11 -9 12 -15 3 -26 -9 -11 -9 -17 0 -26 10 -9
11 -8 5 7 -5 13 -4 17 4 12 6 -3 13 -2 16 2 3 5 17 8 31 7 18 -2 25 2 25 13 0
15 2 15 10 2 12 -18 13 -30 3 -29 -25 4 -36 -2 -25 -13 8 -8 15 -8 28 3 16 12
17 12 12 -2 -7 -18 19 -22 39 -7 9 7 15 5 19 -6 6 -16 44 -23 44 -8 0 4 16 7
35 8 22 0 32 -3 27 -10 -3 -6 -7 -17 -8 -24 -2 -10 1 -10 12 -1 7 6 11 15 8
20 -9 14 4 10 25 -8 11 -9 18 -20 15 -25 -3 -4 0 -8 5 -8 6 0 11 5 11 10 0 6
0 13 0 18 0 4 -4 8 -10 8 -22 3 -24 4 -13 15 8 8 17 5 32 -10 12 -12 20 -24
19 -28 -2 -5 6 -8 17 -9 16 -1 16 0 2 3 -9 3 -15 8 -12 13 3 5 12 7 20 3 9 -3
22 0 30 7 12 10 18 10 31 -1 12 -10 17 -10 23 0 7 10 9 10 14 -2 4 -11 -3 -14
-34 -12 -22 1 -37 0 -34 -3 2 -3 0 -10 -5 -17 -7 -8 -5 -12 5 -12 8 0 12 4 9
9 -3 4 0 8 5 8 6 0 11 -6 11 -12 0 -10 3 -9 9 0 5 9 21 12 44 9 19 -2 41 -1
48 3 15 10 39 2 39 -12 0 -7 -4 -7 -13 0 -8 7 -19 6 -37 -3 l-25 -14 30 3 c17
2 35 -3 45 -13 8 -9 12 -12 8 -7 -18 23 -6 26 22 6 17 -12 27 -26 24 -32 -4
-7 -2 -8 5 -4 9 6 9 11 0 22 -10 12 -7 14 12 12 13 -2 27 -7 30 -11 8 -11 60
-17 53 -6 -3 5 2 9 10 9 9 0 15 -6 14 -12 -2 -7 8 -14 22 -15 21 -2 22 -1 5 5
-11 4 -21 17 -21 30 -1 18 1 20 12 11 8 -6 11 -15 8 -20 -3 -5 1 -9 8 -10 7 0
22 -2 33 -4 10 -2 26 2 34 8 12 10 13 9 3 -10 -8 -14 -18 -20 -31 -16 -10 3
-21 1 -24 -4 -3 -4 10 -8 28 -8 18 0 32 2 29 6 -2 4 3 13 12 20 13 11 15 9 9
-17 l-6 -29 15 30 c8 17 15 25 15 19 1 -11 4 -12 61 -17 27 -3 35 -8 35 -23
-1 -10 -7 -18 -14 -16 -7 1 -9 -2 -6 -8 5 -8 13 -6 26 6 20 18 25 29 9 19 -6
-3 -7 1 -3 10 4 11 8 13 13 5 5 -8 10 -7 19 4 12 14 43 12 38 -2 -1 -4 9 -18
22 -31 16 -16 22 -18 18 -8 -3 9 -2 19 3 22 4 3 11 -1 13 -7 4 -10 6 -10 6 0
1 7 5 10 11 7 6 -3 7 1 4 9 -3 9 -1 16 4 16 6 0 13 -8 15 -17 4 -14 5 -12 6 5
0 12 -5 22 -11 23 -7 0 -2 5 11 10 18 7 21 12 12 23 -9 11 -9 16 0 22 7 4 9 3
5 -4 -3 -6 -2 -14 4 -17 8 -5 8 -11 1 -19 -8 -9 -6 -18 4 -32 8 -10 15 -14 15
-8 0 5 -5 15 -12 22 -9 9 -7 13 6 18 13 5 14 9 5 20 -6 8 -8 14 -4 14 4 0 1 8
-6 18 -13 15 -12 16 3 3 10 -7 15 -17 12 -22 -3 -5 -1 -9 4 -9 5 0 20 16 33
35 31 44 57 46 50 3 0 -4 6 -5 15 -1 12 4 13 8 3 13 -6 5 -10 14 -7 22 4 9 -1
13 -16 13 -31 -2 -57 -16 -50 -26 3 -5 0 -8 -8 -7 -7 2 -12 -4 -10 -12 2 -8 0
-11 -4 -7 -10 10 -14 37 -6 35 14 -3 42 14 37 22 -3 5 6 7 20 5 14 -1 28 1 30
5 6 10 -20 21 -37 16 -7 -1 -11 -1 -8 1 3 2 5 31 3 66 -1 34 -2 462 -3 950 0
769 -2 893 -15 918 -29 55 -53 63 -260 85 -33 3 -73 8 -90 10 -16 2 -55 6 -85
10 -52 6 -75 19 -64 36 10 15 -30 68 -64 84 -24 11 -47 14 -80 9 -45 -6 -49
-4 -100 40 -60 54 -93 62 -142 38z m-629 -2131 c-7 -2 -18 1 -23 6 -8 8 -4 9
13 5 13 -4 18 -8 10 -11z m43 -8 c5 -14 4 -15 -9 -4 -17 14 -19 20 -6 20 5 0
12 -7 15 -16z m33 -14 c-1 -11 -5 -20 -9 -20 -10 0 -10 4 -2 24 8 22 13 20 11
-4z m118 -9 c3 -5 2 -12 -3 -15 -5 -3 -9 1 -9 9 0 17 3 19 12 6z m61 -32 c1
-5 2 -12 3 -15 0 -4 8 -1 16 6 13 11 14 10 9 -5 -6 -14 -4 -16 7 -10 8 4 11 5
7 1 -3 -4 -8 -6 -11 -4 -2 2 -12 -4 -22 -12 -11 -9 -16 -10 -11 -2 4 6 4 18
-1 25 -10 16 -14 41 -5 32 4 -4 8 -11 8 -16z m-26 7 c0 -2 -7 -7 -16 -10 -8
-3 -12 -2 -9 4 6 10 25 14 25 6z m162 -48 c-5 -7 -10 -17 -10 -23 -1 -17 -19
-17 -26 0 -3 9 -2 14 3 11 13 -8 34 21 25 36 -5 10 -4 10 6 1 10 -9 10 -16 2
-25z m-27 4 c-3 -3 -11 0 -18 7 -9 10 -8 11 6 5 10 -3 15 -9 12 -12z m66 -22
c6 0 7 5 3 11 -4 8 0 8 15 0 11 -7 21 -17 20 -24 0 -9 -2 -9 -6 1 -2 6 -9 12
-14 12 -6 0 -8 -4 -4 -9 3 -5 0 -13 -6 -16 -15 -10 -43 20 -33 36 6 10 9 10
12 1 2 -7 8 -12 13 -12z m69 13 c0 -5 -5 -15 -10 -23 -7 -12 -9 -10 -7 8 1 19
17 33 17 15z m52 -17 c7 4 8 2 4 -4 -11 -18 -26 -14 -25 6 0 10 3 12 6 4 2 -6
10 -9 15 -6z m53 -14 c-3 -3 -11 0 -18 7 -9 10 -8 11 6 5 10 -3 15 -9 12 -12z
m43 -15 c9 3 14 3 11 -1 -11 -12 -48 -15 -55 -4 -4 7 -2 8 4 4 7 -4 12 -1 13
6 0 9 2 10 5 1 3 -7 13 -9 22 -6z m151 -21 c-2 -2 -15 -9 -29 -15 -24 -11 -24
-11 -6 3 16 13 49 24 35 12z m70 -32 c-11 -14 -10 -15 7 -12 10 1 22 7 26 13
4 5 10 6 15 2 4 -5 1 -13 -7 -18 -11 -8 -10 -9 8 -4 13 4 22 2 22 -4 0 -6 4
-11 10 -11 5 0 7 8 4 18 -5 16 -5 16 6 0 6 -10 18 -15 28 -12 14 5 14 4 2 -4
-8 -6 -18 -8 -22 -6 -4 3 -8 0 -8 -7 0 -8 -6 -6 -18 4 -10 10 -22 14 -25 11
-4 -4 -13 -1 -22 6 -10 9 -15 9 -15 1 0 -8 -6 -8 -20 1 -11 7 -20 16 -20 21 0
4 5 5 10 2 6 -3 10 -1 10 4 0 6 5 11 11 11 8 0 7 -5 -2 -16z m225 -43 c-8 -8
-34 -10 -38 -2 -3 4 6 7 19 7 14 0 22 -2 19 -5z m313 -13 c-3 -8 -6 -5 -6 6
-1 11 2 17 5 13 3 -3 4 -12 1 -19z m-37 -4 c0 -8 -19 -13 -24 -6 -3 5 1 9 9 9
8 0 15 -2 15 -3z m26 -31 c-3 -4 -6 0 -6 7 0 9 -5 8 -13 -5 -11 -14 -16 -15
-22 -5 -5 8 -4 11 3 6 6 -3 14 3 17 15 7 20 8 21 17 5 5 -10 7 -20 4 -23z"/>
<path d="M1107 239 c7 -7 15 -10 18 -7 3 3 -2 9 -12 12 -14 6 -15 5 -6 -5z"/>
<path d="M416 423 c-6 -14 -5 -15 5 -6 7 7 10 15 7 18 -3 3 -9 -2 -12 -12z"/>
<path d="M540 376 c0 -3 7 -12 16 -20 8 -9 11 -16 5 -16 -6 0 -7 -8 -4 -17 6
-15 7 -14 13 3 8 21 -5 54 -20 54 -6 0 -10 -2 -10 -4z"/>
<path d="M439 368 c-7 -25 -4 -34 13 -34 17 0 17 2 4 12 -9 6 -13 14 -9 17 3
4 3 7 0 7 -4 0 -7 -1 -8 -2z"/>
<path d="M510 321 c0 -6 4 -13 10 -16 6 -3 7 1 4 9 -7 18 -14 21 -14 7z"/>
<path d="M706 308 c3 -5 8 -7 11 -4 7 7 32 -17 26 -26 -9 -15 5 -8 18 10 7 9
9 14 5 10 -5 -4 -16 -2 -24 4 -18 15 -44 20 -36 6z"/>
<path d="M790 290 c-14 -12 -19 -19 -12 -15 6 3 12 1 12 -6 0 -7 8 -5 22 7 21
19 21 19 14 -1 -4 -11 -4 -16 0 -12 4 4 12 3 18 -3 8 -6 12 -2 13 13 0 12 -1
16 -4 9 -3 -8 -10 -6 -22 9 l-17 21 -24 -22z m25 0 c-3 -5 -12 -10 -18 -10 -7
0 -6 4 3 10 19 12 23 12 15 0z"/>
<path d="M682 282 c-8 -6 -2 -9 18 -9 20 0 26 3 18 9 -7 4 -15 8 -18 8 -3 0
-11 -4 -18 -8z"/>
<path d="M892 270 c-21 -17 -21 -19 -3 -17 11 0 18 4 15 8 -2 4 4 9 13 11 10
2 13 6 8 10 -6 3 -20 -2 -33 -12z"/>
<path d="M2235 280 c-3 -5 -1 -10 4 -10 6 0 11 5 11 10 0 6 -2 10 -4 10 -3 0
-8 -4 -11 -10z"/>
<path d="M2268 263 c7 -3 16 -2 19 1 4 3 -2 6 -13 5 -11 0 -14 -3 -6 -6z"/>
<path d="M955 240 c-3 -6 1 -7 9 -4 18 7 21 14 7 14 -6 0 -13 -4 -16 -10z"/>
<path d="M2288 243 c6 -2 9 -10 6 -15 -4 -7 -2 -8 5 -4 13 9 5 26 -12 25 -9 0
-8 -2 1 -6z"/>
<path d="M1150 206 c0 -2 7 -6 15 -10 8 -3 15 -1 15 4 0 6 -7 10 -15 10 -8 0
-15 -2 -15 -4z"/>
<path d="M2221 174 c-11 -14 -18 -30 -15 -35 3 -5 0 -9 -6 -9 -6 0 -9 -4 -5
-10 6 -10 55 28 55 44 0 5 -6 1 -14 -10 -8 -10 -17 -16 -20 -13 -3 3 4 16 15
28 12 12 19 25 16 27 -3 3 -14 -7 -26 -22z"/>
<path d="M1215 180 c-3 -5 -1 -10 4 -10 6 0 11 5 11 10 0 6 -2 10 -4 10 -3 0
-8 -4 -11 -10z"/>
<path d="M1450 120 c0 -5 5 -10 11 -10 5 0 7 5 4 10 -3 6 -8 10 -11 10 -2 0
-4 -4 -4 -10z"/>
<path d="M1675 80 c3 -5 8 -10 11 -10 2 0 4 5 4 10 0 6 -5 10 -11 10 -5 0 -7
-4 -4 -10z"/>
<path d="M1843 67 c-1 -11 -1 -18 0 -16 2 2 8 11 15 20 9 12 9 16 -1 16 -7 0
-14 -9 -14 -20z"/>
<path d="M1985 67 c-9 -15 -15 -32 -12 -39 4 -9 6 -8 6 3 1 9 8 22 16 29 18
15 20 -1 3 -18 -8 -8 -8 -12 -1 -12 16 0 25 29 14 47 -7 14 -11 12 -26 -10z"/>
<path d="M1870 65 c-11 -13 -10 -14 4 -9 9 3 16 10 16 15 0 13 -6 11 -20 -6z"/>
<path d="M1910 66 c7 -7 13 -7 20 0 6 6 3 10 -10 10 -13 0 -16 -4 -10 -10z"/>
<path d="M2026 42 c-3 -5 1 -9 9 -9 8 0 12 4 9 9 -7 10 -11 10 -18 0z"/>
</g>
</svg>
